# AST/ASF file generated using VICON BodyLanguage
# -----------------------------------------------
:version 1.10
:name VICON
:units
  mass 1.0
  length 0.45
  angle deg
:documentation
   .ast/.asf automatically generated from VICON data using
   VICON BodyBuilder and BodyLanguage model FoxedUp or BRILLIANT.MOD
:root
   order TX TY TZ RX RY RZ
   axis XYZ
   position 0 0 0  
   orientation 0 0 0 
:bonedata
  begin
     id 1 
     name lhipjoint
     direction 0.440178 -0.822639 0.359871 
     length 2.53113 
     axis 0 0 0  XYZ
  end
  begin
     id 2 
     name lfemur
     direction 0.34202 -0.939693 0  
     length 7.88132  
     axis 0 0 20  XYZ
    dof rx ry rz
    limits (-160.0 20.0)
           (-70.0 70.0)
           (-60.0 70.0)
  end
  begin
     id 3 
     name ltibia
     direction 0.34202 -0.939693 0   
     length 8.43783   
     axis 0 0 20   XYZ
    dof rx
    limits (-10.0 170.0)
  end
  begin
     id 4 
     name lfoot
     direction 0.0886351 -0.243523 0.965837   
     length 2.63414   
     axis -90 7.62852e-016 20   XYZ
    dof rx rz
    limits (-45.0 90.0)
           (-70.0 20.0)
  end
  begin
     id 5 
     name ltoes
     direction 1.53703e-011 -4.21717e-011 1   
     length 1.31427   
     axis -90 7.62852e-016 20   XYZ
    dof rx
    limits (-90.0 20.0)
  end
  begin
     id 6 
     name rhipjoint
     direction -0.399779 -0.839773 0.367367   
     length 2.47948  
     axis 0 0 0  XYZ 
  end
  begin
     id 7 
     name rfemur
     direction -0.34202 -0.939693 0   
     length 7.74806   
     axis 0 0 -20   XYZ
    dof rx ry rz
    limits (-160.0 20.0)
           (-70.0 70.0)
           (-70.0 60.0)
  end
  begin
     id 8 
     name rtibia
     direction -0.34202 -0.939693 0   
     length 8.74432   
     axis 0 0 -20   XYZ
    dof rx
    limits (-10.0 170.0)
 end
 begin
     id 9 
     name rfoot
     direction -0.108514 -0.298139 0.948334   
     length 2.66102  
     axis -90 -7.62852e-016 -20   XYZ
    dof rx rz
    limits (-45.0 90.0)
           (-20.0 70.0)
  end
  begin
     id 10 
     name rtoes
     direction -1.53392e-011 -4.22077e-011 1   
     length 1.31983   
     axis -90 -7.62852e-016 -20   XYZ
    dof rx
    limits (-90.0 20.0)
  end
  begin
     id 11 
     name lowerback
     direction 0.0113257 0.999866 0.0118602   
     length 2.58694   
     axis 0 0 0   XYZ
    dof rx ry rz
    limits (-20.0 45.0)
           (-30.0 30.0)
           (-30.0 30.0)
  end
  begin
     id 12 
     name upperback
     direction -0.0164747 0.995193 -0.0965375   
     length 2.52368   
     axis 0 0 0   XYZ
    dof rx ry rz
    limits (-20.0 45.0)
           (-30.0 30.0)
           (-30.0 30.0)
  end
  begin
     id 13 
     name thorax
     direction -0.0194301 0.99433 -0.104552   
     length 2.56099   
     axis 0 0 0   XYZ
    dof rx ry rz
    limits (-20.0 45.0)
           (-30.0 30.0)
           (-30.0 30.0)
  end
  begin
     id 14 
     name lowerneck
     direction 0.0148543 0.995587 -0.092657   
     length 1.71582   
     axis 0 0 0   XYZ
    dof rx ry rz
    limits (-20.0 45.0)
           (-30.0 30.0)
           (-30.0 30.0)
  end
  begin
     id 15 
     name upperneck
     direction -0.0135467 0.993656 -0.111639   
     length 1.68937   
     axis 0 0 0   XYZ
    dof rx ry rz
    limits (-20.0 45.0)
           (-30.0 30.0)
           (-30.0 30.0)
  end
  begin
     id 16
     name head
     direction -0.00615349 0.999547 -0.029448  
     length 1.7462  
     axis 0 0 0   XYZ
    dof rx ry rz
    limits (-20.0 45.0)
           (-30.0 30.0)
           (-30.0 30.0)
  end
  begin
     id 17 
     name lclavicle
     direction 0.988267 0.149885 0.0293713  
     length 4.47222  
     axis 0 0 0   XYZ
    dof ry rz
    limits (-20.0 10.0)
           (0.0 20.0)
  end
  begin
     id 18 
     name lhumerus
     direction 1 -4.48986e-011 -1.14833e-027   
     length 5.37148   
     axis 180 -30 -90   XYZ
    dof rx ry rz
    limits (-60.0 90.0)
           (-90.0 90.0)
           (-90.0 90.0)
  end
  begin
     id 19
     name lradius
     direction 0.999998 0.00170963 -0.000987055   
     length 3.94212   
     axis 180 -30 -90   XYZ
    dof rx
    limits (-10.0 170.0)
  end
  begin
     id 20
     name lwrist
     direction 0.999998 7.53149e-005 -0.00194706   
     length 1.97106   
     axis 4.65056e-015 90 90   XYZ
    dof ry
    limits (-180.0 0.0)
 end
  begin
     id 21 
     name lhand
     direction 1 -4.48973e-011 -1.31746e-026   
     length 1.17917   
     axis 8.4065e-015 90 90   XYZ
    dof rx rz
    limits (-90.0 90.0)
           (-45.0 45.0)
  end
  begin
     id 22 
     name lfingers
     direction 1 -4.49107e-011 -2.63492e-026   
     length 0.950679   
     axis 1.6813e-014 90 90   XYZ
    dof rx
    limits (0.0 90.0)
  end
  begin
     id 23
     name lthumb
     direction 0.707107 -6.35048e-011 0.707107   
     length 1.36499   
     axis -90 45 2.85299e-015   XYZ
    dof rx rz
    limits (-45.0 45.0)
           (-45.0 45.0)
  end
  begin
     id 24 
     name rclavicle
     direction -0.996699 0.0642895 -0.0495725   
     length 4.62611  
     axis 0 0 0   XYZ 
    dof ry rz
    limits (-10.0 20.0)
           (-20.0 0.0)
  end
  begin
     id 25 
     name rhumerus
     direction -1 -4.48919e-011 -2.41059e-027  
     length 5.4981   
     axis 180 30 90   XYZ
    dof rx ry rz
    limits (-90.0 60.0)
           (-90.0 90.0)
           (-90.0 90.0)
  end
  begin
     id 26 
     name rradius
     direction -0.999999 0.00118101 -0.000681858   
     length 3.48381   
     axis 180 30 90   XYZ
    dof rx
    limits (-10.0 170.0)
  end
  begin
     id 27 
     name rwrist
     direction -0.999999 0.000321823 -0.00132288   
     length 1.7419   
     axis 4.65056e-015 -90 -90   XYZ
    dof ry
    limits (-180.0 0.0)
  end
  begin
     id 28
     name rhand
     direction -1 -4.49022e-011 -1.31746e-026   
     length 1.34932   
     axis 8.4065e-015 -90 -90   XYZ
    dof rx rz
    limits (-90.0 90.0)
           (-45.0 45.0)
  end
  begin
     id 29
     name rfingers
     direction -1 -4.49178e-011 -2.63492e-026   
     length 1.08785   
     axis 1.6813e-014 -90 -90   XYZ
    dof rx
    limits (0.0 90.0)
  end
  begin
     id 30
     name rthumb
     direction -0.707107 -6.34713e-011 0.707107   
     length 1.56195   
     axis -90 -45 -2.85299e-015   XYZ
    dof rx rz
    limits (-45.0 45.0)
           (-45.0 45.0)
  end
:hierarchy
  begin
    root lhipjoint rhipjoint lowerback
    lhipjoint lfemur
    lfemur ltibia
    ltibia lfoot
    lfoot ltoes
    rhipjoint rfemur
    rfemur rtibia
    rtibia rfoot
    rfoot rtoes
    lowerback upperback
    upperback thorax
    thorax lowerneck lclavicle rclavicle
    lowerneck upperneck
    upperneck head
    lclavicle lhumerus
    lhumerus lradius
    lradius lwrist
    lwrist lhand lthumb
    lhand lfingers
    rclavicle rhumerus
    rhumerus rradius
    rradius rwrist
    rwrist rhand rthumb
    rhand rfingers
  end

#!OML:ASF X:\für Bonn\!DataBase\2005_08_10_Bjorn_Final\c3d\bjorn.ASF
:FULLY-SPECIFIED
:DEGREES
16
root 4.2609 17.5301 -24.4571 8.49704 -3.02954 363.068
lowerback 9.8588 1.17877 0.588448
upperback 7.51263 1.58357 0.660163
thorax 2.28372 0.795898 0.23191
lowerneck -7.6381 0.105263 2.11228
upperneck -25.531 -1.00034 -5.61908
head -6.5775 -0.302191 -2.1648
rclavicle 1.98785e-015 -4.77083e-015
rhumerus -46.9594 -44.2057 -58.1806
rradius 34.5177
rwrist -39.1745
rhand -20.5094 5.36102
rfingers 7.12502
rthumb 5.84804 -24.5383
lclavicle 1.98785e-015 -4.77083e-015
lhumerus -44.7678 34.0518 64.3906
lradius 33.7664
lwrist 46.7266
lhand -27.2044 6.16044
lfingers 7.12502
lthumb -0.617545 36.1393
rfemur -29.9438 2.71119 15.6972
rtibia 65.8611
rfoot -30.1084 12.0061
rtoes -11.3619
lfemur -32.3635 5.3546 -21.0506
ltibia 67.6325
lfoot -24.3651 1.58595
ltoes -34.9756
17
root 4.26303 17.7201 -24.1926 8.3712 -2.98582 362.986
lowerback 8.61886 1.12133 0.655333
upperback 7.27036 1.50438 0.688447
thorax 2.70807 0.75897 0.252821
lowerneck -7.56067 0.0777379 2.01862
upperneck -24.3766 -0.943288 -5.3776
head -6.2079 -0.293856 -2.05551
rclavicle -1.31198e-014 7.95139e-016
rhumerus -48.1981 -42.4743 -58.1793
rradius 38.1028
rwrist -40.975
rhand -21.8207 5.87844
rfingers 7.12502
rthumb 4.58187 -24.052
lclavicle -1.31198e-014 7.95139e-016
lhumerus -46.3283 32.2287 63.5629
lradius 36.5037
lwrist 50.1928
lhand -28.616 6.47993
lfingers 7.12502
lthumb -1.98086 36.4505
rfemur -27.7557 2.51384 15.6215
rtibia 63.5978
rfoot -28.14 12.7887
rtoes -11.1312
lfemur -30.2899 5.4914 -20.7675
ltibia 65.4992
lfoot -23.077 0.473862
ltoes -34.4707
18
root 4.26431 17.9273 -23.9239 8.20736 -2.85259 362.893
lowerback 7.34689 1.03716 0.774386
upperback 6.97903 1.39017 0.704759
thorax 3.1054 0.706944 0.231545
lowerneck -7.17497 0.0477826 1.97906
upperneck -23.1965 -0.891575 -5.1406
head -5.88531 -0.28724 -1.95875
rclavicle -3.97569e-015 7.15625e-015
rhumerus -49.6225 -40.9039 -57.9306
rradius 41.691
rwrist -42.0246
rhand -23.7026 6.89781
rfingers 7.12502
rthumb 2.76458 -23.064
lclavicle -3.97569e-015 7.15625e-015
lhumerus -47.8509 30.2526 62.8199
lradius 39.3367
lwrist 53.6641
lhand -29.8544 6.40822
lfingers 7.12502
lthumb -3.17683 36.3643
rfemur -25.4778 2.22222 15.5636
rtibia 61.1655
rfoot -25.6113 13.6475
rtoes -10.4099
lfemur -28.1464 5.77543 -20.4174
ltibia 63.1519
lfoot -21.35 -0.900451
ltoes -33.6784
19
root 4.26279 18.1537 -23.6523 7.88497 -2.66657 362.81
lowerback 6.15403 0.94105 0.874711
upperback 6.69744 1.25648 0.721492
thorax 3.47333 0.644458 0.217119
lowerneck -6.54309 0.0112666 2.0238
upperneck -21.975 -0.859796 -4.95829
head -5.59505 -0.28988 -1.89485
rclavicle -1.19271e-015 3.97569e-015
rhumerus -51.1805 -39.5284 -57.441
rradius 45.2676
rwrist -42.4649
rhand -25.3082 7.81025
rfingers 7.12502
rthumb 1.2139 -22.166
lclavicle -1.19271e-015 3.97569e-015
lhumerus -49.2957 28.3298 62.0769
lradius 42.1454
lwrist 56.5233
lhand -30.7711 6.43557
lfingers 7.12502
lthumb -4.06206 36.3766
rfemur -23.0971 1.91724 15.5164
rtibia 58.6291
rfoot -22.5373 14.2582
rtoes -9.57463
lfemur -25.7531 6.08239 -20.0275
ltibia 60.5771
lfoot -19.2203 -2.14212
ltoes -33.6023
20
root 4.26154 18.3941 -23.3702 7.4729 -2.46478 362.727
lowerback 4.92976 0.845149 0.967152
upperback 6.38352 1.11939 0.74408
thorax 3.82859 0.57977 0.20964
lowerneck -5.90339 -0.0368204 2.09029
upperneck -20.3286 -0.834846 -4.79913
head -5.1776 -0.298584 -1.83975
rclavicle 2.66371e-014 1.59028e-015
rhumerus -52.9381 -38.2327 -56.6312
rradius 48.8168
rwrist -42.6846
rhand -26.5257 8.51927
rfingers 7.12502
rthumb 0.0379897 -21.4605
lclavicle 2.66371e-014 1.59028e-015
lhumerus -50.8237 26.3784 61.2619
lradius 45.0255
lwrist 58.9253
lhand -31.4133 6.69434
lfingers 7.12502
lthumb -4.68221 36.6226
rfemur -20.6821 1.54932 15.4533
rtibia 56.0233
rfoot -19.0779 14.6252
rtoes -9.01782
lfemur -23.1892 6.41954 -19.5828
ltibia 57.8164
lfoot -16.6429 -3.60553
ltoes -33.1328
21
root 4.25975 18.6447 -23.0757 7.04643 -2.34869 362.66
lowerback 3.61896 0.777705 1.04558
upperback 5.98231 1.01778 0.726334
thorax 4.14546 0.532906 0.164879
lowerneck -5.06192 -0.0831127 2.27566
upperneck -18.3932 -0.810149 -4.72028
head -4.71093 -0.30904 -1.82976
rclavicle 1.17283e-014 7.95139e-015
rhumerus -54.8568 -37.0268 -55.5608
rradius 52.2278
rwrist -42.6867
rhand -27.1354 9.15071
rfingers 7.12502
rthumb -0.550855 -20.8283
lclavicle 1.17283e-014 7.95139e-015
lhumerus -52.4154 24.5622 60.2045
lradius 47.7979
lwrist 60.5185
lhand -31.786 7.25344
lfingers 7.12502
lthumb -5.04212 37.1735
rfemur -18.3049 1.25423 15.3587
rtibia 53.3967
rfoot -15.4052 14.5028
rtoes -9.13475
lfemur -20.5512 6.83836 -19.1245
ltibia 54.9
lfoot -13.241 -5.09154
ltoes -32.6596
22
root 4.25825 18.9046 -22.7757 6.47737 -2.27658 362.558
lowerback 2.40865 0.725814 1.14989
upperback 5.55974 0.935634 0.722817
thorax 4.38723 0.496165 0.115985
lowerneck -4.25649 -0.147067 2.59095
upperneck -15.744 -0.791495 -4.71547
head -4.50688 -0.345253 -2.04393
rclavicle 1.27222e-014 -1.59028e-015
rhumerus -56.6549 -35.9185 -54.3219
rradius 55.4193
rwrist -42.2394
rhand -26.9953 9.59487
rfingers 7.12502
rthumb -0.415502 -20.3845
lclavicle 1.27222e-014 -1.59028e-015
lhumerus -53.8918 22.9646 59.0141
lradius 50.3896
lwrist 61.534
lhand -31.7555 7.72282
lfingers 7.12502
lthumb -5.01263 37.6435
rfemur -15.8262 0.955255 15.2803
rtibia 50.7606
rfoot -11.5238 14.017
rtoes -9.37856
lfemur -17.7552 7.07818 -18.6152
ltibia 51.9224
lfoot -9.06971 -6.17292
ltoes -31.8241
23
root 4.25915 19.1741 -22.4805 5.71311 -2.19606 362.488
lowerback 1.47156 0.673014 1.27663
upperback 5.15509 0.854698 0.693761
thorax 4.49616 0.461095 0.0225073
lowerneck -3.27508 -0.214267 2.80888
upperneck -13.4843 -0.790924 -4.72267
head -3.87134 -0.35582 -2.05385
rclavicle -7.7526e-015 -8.74653e-015
rhumerus -58.2265 -34.976 -53.0882
rradius 58.6489
rwrist -42.0781
rhand -26.7451 9.61713
rfingers 7.12502
rthumb -0.173924 -20.3625
lclavicle -7.7526e-015 -8.74653e-015
lhumerus -55.1334 21.6375 57.7583
lradius 52.8227
lwrist 61.7988
lhand -31.4586 7.74161
lfingers 7.12502
lthumb -4.72593 37.6689
rfemur -13.2496 0.609963 15.1497
rtibia 48.1977
rfoot -7.18718 13.09
rtoes -9.94043
lfemur -14.8472 7.06034 -18.1694
ltibia 48.98
lfoot -4.52918 -6.57879
ltoes -30.8428
24
root 4.25838 19.4533 -22.1957 5.0312 -2.0804 362.427
lowerback 0.483382 0.598571 1.33855
upperback 4.79302 0.740998 0.699007
thorax 4.67806 0.406461 -0.00101296
lowerneck -2.2133 -0.268577 2.77824
upperneck -11.4485 -0.757602 -4.50912
head -3.34729 -0.342597 -1.95217
rclavicle -5.1684e-015 -7.95139e-015
rhumerus -59.3525 -34.1089 -51.9674
rradius 61.8224
rwrist -41.9367
rhand -26.3375 9.3897
rfingers 7.12502
rthumb 0.219823 -20.5899
lclavicle -5.1684e-015 -7.95139e-015
lhumerus -56.1133 20.444 56.6516
lradius 55.216
lwrist 61.2672
lhand -30.9444 7.35761
lfingers 7.12502
lthumb -4.22946 37.2954
rfemur -10.9464 0.214103 15.0138
rtibia 45.769
rfoot -2.22947 11.7243
rtoes -9.92456
lfemur -12.2574 6.99874 -17.7604
ltibia 46.1684
lfoot 0.264102 -6.45096
ltoes -30.1137
25
root 4.25674 19.7288 -21.9193 4.50796 -1.98284 362.395
lowerback -0.692131 0.518058 1.35584
upperback 4.48143 0.614899 0.700133
thorax 5.02018 0.344714 -0.00444698
lowerneck -1.18789 -0.3055 2.72562
upperneck -9.55269 -0.710733 -4.27482
head -2.88055 -0.321737 -1.84604
rclavicle 8.74653e-015 8.74653e-015
rhumerus -60.1515 -33.3172 -50.9269
rradius 64.8478
rwrist -41.8055
rhand -25.6244 9.20388
rfingers 7.12502
rthumb 0.908552 -20.7739
lclavicle 8.74653e-015 8.74653e-015
lhumerus -57.0369 19.188 55.6998
lradius 57.7585
lwrist 60.3387
lhand -30.3419 6.71554
lfingers 7.12502
lthumb -3.64767 36.6641
rfemur -9.06391 -0.101625 14.8521
rtibia 43.6151
rfoot 2.7394 9.99578
rtoes -10.0495
lfemur -10.1184 6.9592 -17.4534
ltibia 43.5947
lfoot 4.7943 -6.06122
ltoes -30.9195
26
root 4.25467 20.0144 -21.6487 4.21163 -1.90128 362.367
lowerback -2.16638 0.445835 1.34743
upperback 4.34563 0.491646 0.709889
thorax 5.71979 0.285128 0.0162786
lowerneck -0.639086 -0.362231 2.81163
upperneck -7.74161 -0.717733 -4.21283
head -2.37385 -0.331377 -1.82289
rclavicle -1.45113e-014 3.97569e-015
rhumerus -60.4357 -32.6236 -50.276
rradius 67.8125
rwrist -41.7203
rhand -24.852 9.11153
rfingers 7.12502
rthumb 1.6545 -20.8618
lclavicle -1.45113e-014 3.97569e-015
lhumerus -57.5691 18.1003 54.9273
lradius 60.2661
lwrist 58.9581
lhand -29.6774 6.08884
lfingers 7.12502
lthumb -3.0059 36.0474
rfemur -7.66953 -0.417822 14.6915
rtibia 41.7753
rfoot 7.34264 8.17328
rtoes -10.9662
lfemur -8.4492 6.87226 -17.2163
ltibia 41.2927
lfoot 8.9167 -5.58475
ltoes -32.4302
27
root 4.2527 20.3021 -21.3917 4.21264 -1.8158 362.343
lowerback -3.82258 0.373667 1.28509
upperback 4.25141 0.365463 0.759437
thorax 6.57195 0.22121 0.105573
lowerneck -0.340959 -0.428251 2.99946
upperneck -6.08545 -0.759129 -4.38708
head -1.88969 -0.356489 -1.89803
rclavicle -8.05078e-015 -1.59028e-015
rhumerus -60.3618 -31.9031 -49.8682
rradius 70.7539
rwrist -41.7426
rhand -24.0024 9.12705
rfingers 7.12502
rthumb 2.47505 -20.8383
lclavicle -8.05078e-015 -1.59028e-015
lhumerus -57.7988 17.2518 54.2915
lradius 62.6189
lwrist 57.2946
lhand -28.8389 5.24287
lfingers 7.12502
lthumb -2.19611 35.2113
rfemur -6.89209 -0.789944 14.5715
rtibia 40.3049
rfoot 11.4434 6.54872
rtoes -13.651
lfemur -7.34294 6.72023 -17.0456
ltibia 39.3314
lfoot 12.608 -4.98689
ltoes -33.682
28
root 4.24947 20.5888 -21.1485 4.41511 -1.69798 362.325
lowerback -5.45839 0.281361 1.20198
upperback 4.09017 0.216148 0.81518
thorax 7.34633 0.143893 0.204946
lowerneck 0.197883 -0.497574 3.21119
upperneck -4.94247 -0.813366 -4.62641
head -1.62285 -0.382148 -2.00583
rclavicle 3.27995e-015 -9.54166e-015
rhumerus -60.0847 -31.1627 -49.5824
rradius 73.5416
rwrist -41.7599
rhand -23.1283 9.17077
rfingers 7.12502
rthumb 3.31922 -20.7831
lclavicle 3.27995e-015 -9.54166e-015
lhumerus -57.8903 16.5926 53.6686
lradius 64.7942
lwrist 55.6896
lhand -27.86 3.93608
lfingers 7.12502
lthumb -1.25074 33.9122
rfemur -6.5682 -1.23889 14.5045
rtibia 39.1378
rfoot 14.8908 5.3744
rtoes -17.9997
lfemur -6.68244 6.407 -16.9339
ltibia 37.7028
lfoot 16.0256 -4.16354
ltoes -33.7261
